:SAMPLES-PER-SECOND 30
:FRAME-RANGE 1-564
:FULLY-SPECIFIED
:DEGREES
494
root  41.8801 38.2733 -138.576 -137.394 -82.0699 143.091
RightUpLeg  -7.42573 -6.82011 -4.63533
RightLeg  9.49203 -18.8736 -0.898131
RightFoot  -7.56864 -0.199959 4.50585
RightToes  1.21801e-010 1.2921e-014 -6.02303e-014
Spine  -10.6288 -1.38917 4.83147
Spine1  10.0766 -1.4593 -1.44746
HEad  18.4556 33.3096 -8.6059
LeftShoulder1  0.686809 0.739198 -20.5779
LeftArm  -8.12258 9.68761 -52.9864
LeftForeArm  28.9748 3.96316 -10.7189
LeftHand  -0.0180779 5.7262 3.26732
RightShoulder  1.54173 1.65098 25.0073
RightArm  -23.4011 2.65707 39.5534
RightForeArm  57.4086 -5.93881 4.62382
RightHand  0.117984 -6.28057 -17.2646
LeftUpLeg  -5.87945 7.4819 -1.33243
LeftLeg  16.1761 13.266 4.46504
LeftFoot  -9.55572 0.133161 -4.86882
LeftToes  1.70735e-010 3.74918e-011 3.68705e-011
495
root  41.9931 38.2569 -138.832 -113.964 -85.63 119.383
RightUpLeg  -6.34245 -5.51568 -3.07117
RightLeg  8.81808 -24.1799 -1.36698
RightFoot  -7.29893 -0.203148 4.34725
RightToes  1.21801e-010 1.2921e-014 -6.02303e-014
Spine  -10.5405 -1.4746 5.5839
Spine1  10.3344 -1.67649 -1.29331
HEad  18.2079 31.7201 -8.22187
LeftShoulder1  0.749909 0.527303 -20.8245
LeftArm  -8.14405 9.91953 -53.1394
LeftForeArm  29.4019 3.36937 -10.6888
LeftHand  -0.0298474 5.06369 1.26288
RightShoulder  1.42655 1.19125 25.6372
RightArm  -23.5507 2.54859 39.2853
RightForeArm  57.683 -5.91813 4.5524
RightHand  0.117746 -6.28769 -17.1221
LeftUpLeg  -4.81944 9.1103 -0.103716
LeftLeg  15.3311 13.4169 4.11653
LeftFoot  -9.6908 0.135263 -5.35753
LeftToes  1.70735e-010 3.74918e-011 3.68705e-011
496
root  42.0963 38.2406 -138.986 -57.5926 -85.8912 63.2477
RightUpLeg  -6.37764 -5.73898 -2.78637
RightLeg  9.11867 -27.9636 -1.39187
RightFoot  -7.41164 -0.200283 4.36631
RightToes  1.21801e-010 1.2921e-014 -6.02303e-014
Spine  -10.802 -1.92373 4.98614
Spine1  10.2018 -2.28925 -0.59059
HEad  18.182 30.0475 -7.69209
LeftShoulder1  0.611814 1.02795 -20.6844
LeftArm  -8.32734 9.95612 -53.6691
LeftForeArm  29.3315 3.69094 -10.6631
LeftHand  -0.0298573 4.79459 0.901905
RightShoulder  1.4623 1.26652 25.9135
RightArm  -24.041 2.06418 39.5521
RightForeArm  58.706 -5.84226 4.29618
RightHand  0.242213 -6.99968 -18.456
LeftUpLeg  -4.28272 8.78743 -0.0868084
LeftLeg  14.0283 15.27 4.01724
LeftFoot  -9.67187 0.130793 -4.99758
LeftToes  1.70735e-010 3.74918e-011 3.68705e-011
497
root  42.2298 38.225 -139.132 -24.7267 -83.5444 30.495
RightUpLeg  -6.56254 -5.90715 -2.29393
RightLeg  9.88077 -31.2894 -1.62957
RightFoot  -7.40895 -0.20739 4.5704
RightToes  1.21801e-010 1.2921e-014 -6.02303e-014
Spine  -11.232 -1.43491 6.06285
Spine1  10.482 -1.32496 -2.58306
HEad  18.0484 27.5001 -5.65745
LeftShoulder1  1.10247 -1.2755 -17.6842
LeftArm  -10.3429 10.6923 -55.9823
LeftForeArm  29.9862 3.84336 -10.0415
LeftHand  -0.0354358 4.56672 1.72018
RightShoulder  0.928199 -0.67786 29.2532
RightArm  -23.0278 2.52755 38.1179
RightForeArm  58.7603 -5.93285 4.85458
RightHand  0.210952 -6.87739 -17.6229
LeftUpLeg  -3.85468 7.84842 0.188234
LeftLeg  12.7495 17.3223 4.01497
LeftFoot  -9.61099 0.133412 -5.01922
LeftToes  1.70735e-010 3.74918e-011 3.68705e-011
498
root  42.3886 38.1938 -139.29 -12.8387 -80.767 18.6836
RightUpLeg  -6.98412 -5.906 -1.61189
RightLeg  10.8208 -34.3954 -2.49944
RightFoot  -7.37032 -0.207338 4.53201
RightToes  1.21801e-010 1.2921e-014 -6.02303e-014
Spine  -11.103 -1.34665 5.68589
Spine1  10.3836 -1.3067 -2.21527
HEad  18.0737 25.9991 -4.77106
LeftShoulder1  1.15413 -1.48765 -17.6989
LeftArm  -10.5329 10.1345 -56.2417
LeftForeArm  30.2955 4.28602 -9.9464
LeftHand  -0.0341138 4.93319 1.9126
RightShoulder  0.854215 -0.910946 29.5862
RightArm  -23.9197 2.36853 38.8786
RightForeArm  59.9609 -5.80857 4.34533
RightHand  0.157316 -6.51667 -17.6795
LeftUpLeg  -3.64331 7.26512 0.491473
LeftLeg  11.5027 18.939 3.78394
LeftFoot  -9.68538 0.133539 -5.22294
LeftToes  1.70735e-010 3.74918e-011 3.68705e-011
499
root  42.52 38.1606 -139.409 -7.59955 -77.5982 13.7017
RightUpLeg  -7.63942 -7.19228 -1.48043
RightLeg  12.1086 -36.4101 -3.10764
RightFoot  -7.66479 -0.204216 4.73563
RightToes  1.21801e-010 1.2921e-014 -6.02303e-014
Spine  -11.093 -1.73755 4.14243
Spine1  10.06 -1.95805 -0.796199
HEad  17.8991 24.7802 -4.3037
LeftShoulder1  1.05722 -1.02025 -18.0878
LeftArm  -10.3728 10.2658 -56.236
LeftForeArm  30.3059 3.68963 -10.0124
LeftHand  -0.0287836 5.2619 2.16967
RightShoulder  0.857505 -0.86575 29.0475
RightArm  -21.4239 1.9629 39.7828
RightForeArm  57.7988 -6.11052 5.74353
RightHand  0.252315 -7.13889 -17.7431
LeftUpLeg  -3.52344 5.93389 0.452436
LeftLeg  9.4434 20.5924 3.28709
LeftFoot  -9.05371 0.156364 -5.11241
LeftToes  1.70735e-010 3.74918e-011 3.68705e-011
500
root  42.651 38.1608 -139.493 -4.06409 -74.9763 10.0987
RightUpLeg  -7.79894 -9.08411 -1.10056
RightLeg  12.7402 -37.0694 -3.30501
RightFoot  -7.62865 -0.200406 4.57984
RightToes  1.21801e-010 1.2921e-014 -6.02303e-014
Spine  -10.8058 -1.81501 3.61742
Spine1  9.73344 -1.99512 -0.878175
HEad  17.4314 23.326 -3.34917
LeftShoulder1  1.08111 -1.20397 -17.5842
LeftArm  -10.3525 9.88174 -56.5368
LeftForeArm  30.167 4.15277 -10.0229
LeftHand  -0.0266966 5.1186 2.16384
RightShoulder  0.82809 -0.978891 29.4934
RightArm  -21.6183 2.02799 40.6391
RightForeArm  58.7862 -6.05833 5.62257
RightHand  0.197471 -6.80918 -17.3881
LeftUpLeg  -3.20676 4.83567 0.616115
LeftLeg  7.20747 21.3772 2.84057
LeftFoot  -6.57169 0.271696 -5.57562
LeftToes  1.70735e-010 3.74918e-011 3.68705e-011
501
root  42.7858 38.1225 -139.563 -1.3782 -72.7368 7.23364
RightUpLeg  -8.10471 -11.9252 -0.328846
RightLeg  13.5788 -36.527 -3.96348
RightFoot  -7.77078 -0.19788 4.65032
RightToes  1.21801e-010 1.2921e-014 -6.02303e-014
Spine  -10.8509 -1.71631 2.47381
Spine1  10.1737 -2.08036 0.0726642
HEad  16.3615 22.4496 -2.76743
LeftShoulder1  1.13496 -1.38722 -17.814
LeftArm  -10.2831 9.45281 -56.5807
LeftForeArm  30.8861 3.79197 -10.0171
LeftHand  -0.0304449 5.22786 2.19171
RightShoulder  0.80392 -1.02519 29.1375
RightArm  -21.3405 2.25933 41.7983
RightForeArm  59.0557 -6.06895 5.74191
RightHand  0.239728 -7.09808 -17.3504
LeftUpLeg  -3.18229 4.34159 1.06784
LeftLeg  5.96959 20.2158 2.76855
LeftFoot  -6.35801 0.297057 -5.94791
LeftToes  1.70735e-010 3.74918e-011 3.68705e-011
